<?xml version="1.0" standalone="no"?>
<!DOCTYPE svg PUBLIC "-//W3C//DTD SVG 20010904//EN"
 "http://www.w3.org/TR/2001/REC-SVG-20010904/DTD/svg10.dtd">
<svg version="1.0" xmlns="http://www.w3.org/2000/svg"
 width="280.000000pt" height="280.000000pt" viewBox="0 0 280.000000 280.000000"
 preserveAspectRatio="xMidYMid meet">
<metadata>
Created by potrace 1.11, written by Peter Selinger 2001-2013
</metadata>
<g transform="translate(0.000000,280.000000) scale(0.100000,-0.100000)"
fill="#000000" stroke="none">
<path d="M1260 2559 c-30 -4 -66 -9 -80 -12 -14 -3 -35 -8 -47 -11 -65 -14
-175 -79 -235 -138 -74 -74 -84 -87 -120 -153 -119 -222 -122 -600 -8 -830 97
-195 276 -304 511 -310 173 -5 324 38 408 117 40 38 46 61 46 193 0 152 -1
154 -72 108 -74 -47 -194 -99 -269 -116 -123 -28 -301 -3 -343 47 -7 8 -13 37
-15 66 -1 28 -7 55 -13 58 -6 4 -13 17 -17 30 -6 17 -3 24 16 31 22 8 22 8
-10 25 -34 17 -42 43 -17 52 21 8 19 22 -10 60 -33 43 -32 58 6 91 17 16 38
41 46 57 15 28 14 30 -11 49 -14 10 -31 29 -38 40 -11 21 -10 21 9 5 21 -19
53 -24 53 -9 0 5 -7 24 -14 43 -26 60 -3 176 45 236 13 16 40 40 59 53 19 13
41 30 48 37 19 17 33 5 23 -21 -11 -31 -6 -173 9 -227 46 -169 180 -280 400
-330 110 -25 145 -56 170 -150 11 -40 14 -214 6 -280 -2 -14 -7 -50 -11 -80
-50 -416 -275 -717 -693 -925 -59 -29 -119 -57 -135 -60 -15 -4 -30 -11 -33
-16 -3 -5 -16 -9 -29 -9 -13 0 -26 -4 -29 -9 -3 -4 -26 -14 -51 -21 -25 -7
-45 -17 -45 -22 0 -5 8 -7 18 -4 9 3 46 12 82 21 120 29 284 87 410 143 69 31
127 58 130 61 3 3 21 15 40 25 312 171 541 456 620 771 25 101 27 108 39 220
12 117 5 354 -14 425 -2 8 -7 31 -10 50 -23 135 -110 310 -207 418 -138 152
-381 232 -618 201z"/>
</g>
</svg>
